<?xml version="1.0" encoding="UTF-8" standalone="no"?>
<!DOCTYPE svg PUBLIC "-//W3C//DTD SVG 1.1//EN"
 "http://www.w3.org/Graphics/SVG/1.1/DTD/svg11.dtd">
<!-- Generated by graphviz version 2.50.0 (20211204.2007)
 -->
<!-- Pages: 1 -->
<svg width="712pt" height="276pt"
 viewBox="0.00 0.00 712.00 276.00" xmlns="http://www.w3.org/2000/svg" xmlns:xlink="http://www.w3.org/1999/xlink">
<g id="graph0" class="graph" transform="scale(1 1) rotate(0) translate(4 272)">
<polygon fill="white" stroke="transparent" points="-4,4 -4,-272 708,-272 708,4 -4,4"/>
<!-- 0 -->
<g id="node1" class="node">
<title>0</title>
<ellipse fill="#ffb90f" stroke="black" cx="27" cy="-76" rx="27" ry="18"/>
<text text-anchor="middle" x="27" y="-72.3" font-family="Times,serif" font-size="14.00">0</text>
</g>
<!-- p3 -->
<g id="node2" class="node">
<title>p3</title>
<polygon fill="cyan" stroke="black" points="135,-152 107.35,-134 135,-116 162.65,-134 135,-152"/>
<text text-anchor="middle" x="135" y="-130.3" font-family="Times,serif" font-size="14.00" fill="darkturquoise">p3</text>
</g>
<!-- p3&#45;&gt;0 -->
<g id="edge1" class="edge">
<title>p3&#45;&gt;0</title>
<path fill="none" stroke="black" d="M120.43,-125.45C104.16,-117.01 77.37,-103.12 56.64,-92.37"/>
<polygon fill="black" stroke="black" points="58.09,-89.18 47.6,-87.68 54.87,-95.39 58.09,-89.18"/>
</g>
<!-- 1 -->
<g id="node3" class="node">
<title>1</title>
<ellipse fill="#ffb90f" stroke="black" cx="99" cy="-76" rx="27" ry="18"/>
<text text-anchor="middle" x="99" y="-72.3" font-family="Times,serif" font-size="14.00">1</text>
</g>
<!-- p3&#45;&gt;1 -->
<g id="edge2" class="edge">
<title>p3&#45;&gt;1</title>
<path fill="none" stroke="black" d="M127.19,-120.85C123.55,-115.19 119.08,-108.24 114.78,-101.55"/>
<polygon fill="black" stroke="black" points="117.48,-99.27 109.12,-92.75 111.59,-103.05 117.48,-99.27"/>
</g>
<!-- 2 -->
<g id="node4" class="node">
<title>2</title>
<ellipse fill="#ffb90f" stroke="black" cx="171" cy="-76" rx="27" ry="18"/>
<text text-anchor="middle" x="171" y="-72.3" font-family="Times,serif" font-size="14.00">2</text>
</g>
<!-- p3&#45;&gt;2 -->
<g id="edge3" class="edge">
<title>p3&#45;&gt;2</title>
<path fill="none" stroke="black" d="M142.81,-120.85C146.45,-115.19 150.92,-108.24 155.22,-101.55"/>
<polygon fill="black" stroke="black" points="158.41,-103.05 160.88,-92.75 152.52,-99.27 158.41,-103.05"/>
</g>
<!-- p2 -->
<g id="node5" class="node">
<title>p2</title>
<polygon fill="cyan" stroke="black" points="388,-210 360.35,-192 388,-174 415.65,-192 388,-210"/>
<text text-anchor="middle" x="388" y="-188.3" font-family="Times,serif" font-size="14.00" fill="darkturquoise">p2</text>
</g>
<!-- p2&#45;&gt;p3 -->
<g id="edge4" class="edge">
<title>p2&#45;&gt;p3</title>
<path fill="none" stroke="black" d="M368.15,-186.61C323.9,-176.81 216.99,-153.15 164.74,-141.58"/>
<polygon fill="black" stroke="black" points="165.28,-138.12 154.76,-139.37 163.77,-144.95 165.28,-138.12"/>
</g>
<!-- p4 -->
<g id="node10" class="node">
<title>p4</title>
<polygon fill="cyan" stroke="black" points="388,-152 360.35,-134 388,-116 415.65,-134 388,-152"/>
<text text-anchor="middle" x="388" y="-130.3" font-family="Times,serif" font-size="14.00" fill="darkturquoise">p4</text>
</g>
<!-- p2&#45;&gt;p4 -->
<g id="edge17" class="edge">
<title>p2&#45;&gt;p4</title>
<path fill="none" stroke="black" d="M388,-173.89C388,-170.2 388,-166.21 388,-162.24"/>
<polygon fill="black" stroke="black" points="391.5,-162 388,-152 384.5,-162 391.5,-162"/>
</g>
<!-- p8 -->
<g id="node20" class="node">
<title>p8</title>
<polygon fill="cyan" stroke="black" points="605,-152 577.35,-134 605,-116 632.65,-134 605,-152"/>
<text text-anchor="middle" x="605" y="-130.3" font-family="Times,serif" font-size="14.00" fill="darkturquoise">p8</text>
</g>
<!-- p2&#45;&gt;p8 -->
<g id="edge20" class="edge">
<title>p2&#45;&gt;p8</title>
<path fill="none" stroke="black" d="M406.88,-186.13C444.95,-176.3 531.15,-154.06 576.26,-142.42"/>
<polygon fill="black" stroke="black" points="577.2,-145.79 586.01,-139.9 575.45,-139.01 577.2,-145.79"/>
</g>
<!-- 3 -->
<g id="node6" class="node">
<title>3</title>
<ellipse fill="#ffb90f" stroke="black" cx="100" cy="-18" rx="27" ry="18"/>
<text text-anchor="middle" x="100" y="-14.3" font-family="Times,serif" font-size="14.00">3</text>
</g>
<!-- p5 -->
<g id="node7" class="node">
<title>p5</title>
<polygon fill="cyan" stroke="black" points="244,-94 216.35,-76 244,-58 271.65,-76 244,-94"/>
<text text-anchor="middle" x="244" y="-72.3" font-family="Times,serif" font-size="14.00" fill="darkturquoise">p5</text>
</g>
<!-- p5&#45;&gt;3 -->
<g id="edge5" class="edge">
<title>p5&#45;&gt;3</title>
<path fill="none" stroke="black" d="M227.48,-68.58C204.32,-59.57 161.71,-43 132.17,-31.51"/>
<polygon fill="black" stroke="black" points="133.28,-28.19 122.7,-27.83 130.75,-34.71 133.28,-28.19"/>
</g>
<!-- 4 -->
<g id="node8" class="node">
<title>4</title>
<ellipse fill="#ffb90f" stroke="black" cx="172" cy="-18" rx="27" ry="18"/>
<text text-anchor="middle" x="172" y="-14.3" font-family="Times,serif" font-size="14.00">4</text>
</g>
<!-- p5&#45;&gt;4 -->
<g id="edge6" class="edge">
<title>p5&#45;&gt;4</title>
<path fill="none" stroke="black" d="M231.79,-65.5C222.29,-58.12 208.81,-47.63 197.05,-38.48"/>
<polygon fill="black" stroke="black" points="198.91,-35.5 188.87,-32.12 194.62,-41.02 198.91,-35.5"/>
</g>
<!-- 5 -->
<g id="node9" class="node">
<title>5</title>
<ellipse fill="#ffb90f" stroke="black" cx="244" cy="-18" rx="27" ry="18"/>
<text text-anchor="middle" x="244" y="-14.3" font-family="Times,serif" font-size="14.00">5</text>
</g>
<!-- p5&#45;&gt;5 -->
<g id="edge7" class="edge">
<title>p5&#45;&gt;5</title>
<path fill="none" stroke="black" d="M244,-57.89C244,-54.2 244,-50.21 244,-46.24"/>
<polygon fill="black" stroke="black" points="247.5,-46 244,-36 240.5,-46 247.5,-46"/>
</g>
<!-- p4&#45;&gt;p5 -->
<g id="edge8" class="edge">
<title>p4&#45;&gt;p5</title>
<path fill="none" stroke="black" d="M371.48,-126.58C346.77,-116.96 299.92,-98.75 270.42,-87.27"/>
<polygon fill="black" stroke="black" points="271.36,-83.88 260.77,-83.52 268.82,-90.41 271.36,-83.88"/>
</g>
<!-- p6 -->
<g id="node12" class="node">
<title>p6</title>
<polygon fill="cyan" stroke="black" points="388,-94 360.35,-76 388,-58 415.65,-76 388,-94"/>
<text text-anchor="middle" x="388" y="-72.3" font-family="Times,serif" font-size="14.00" fill="darkturquoise">p6</text>
</g>
<!-- p4&#45;&gt;p6 -->
<g id="edge12" class="edge">
<title>p4&#45;&gt;p6</title>
<path fill="none" stroke="black" d="M388,-115.89C388,-112.2 388,-108.21 388,-104.24"/>
<polygon fill="black" stroke="black" points="391.5,-104 388,-94 384.5,-104 391.5,-104"/>
</g>
<!-- p7 -->
<g id="node16" class="node">
<title>p7</title>
<polygon fill="cyan" stroke="black" points="532,-94 504.35,-76 532,-58 559.65,-76 532,-94"/>
<text text-anchor="middle" x="532" y="-72.3" font-family="Times,serif" font-size="14.00" fill="darkturquoise">p7</text>
</g>
<!-- p4&#45;&gt;p7 -->
<g id="edge16" class="edge">
<title>p4&#45;&gt;p7</title>
<path fill="none" stroke="black" d="M404.52,-126.58C429.23,-116.96 476.08,-98.75 505.58,-87.27"/>
<polygon fill="black" stroke="black" points="507.18,-90.41 515.23,-83.52 504.64,-83.88 507.18,-90.41"/>
</g>
<!-- 6 -->
<g id="node11" class="node">
<title>6</title>
<ellipse fill="#ffb90f" stroke="black" cx="316" cy="-18" rx="27" ry="18"/>
<text text-anchor="middle" x="316" y="-14.3" font-family="Times,serif" font-size="14.00">6</text>
</g>
<!-- p6&#45;&gt;6 -->
<g id="edge9" class="edge">
<title>p6&#45;&gt;6</title>
<path fill="none" stroke="black" d="M375.79,-65.5C366.29,-58.12 352.81,-47.63 341.05,-38.48"/>
<polygon fill="black" stroke="black" points="342.91,-35.5 332.87,-32.12 338.62,-41.02 342.91,-35.5"/>
</g>
<!-- 7 -->
<g id="node13" class="node">
<title>7</title>
<ellipse fill="#ffb90f" stroke="black" cx="388" cy="-18" rx="27" ry="18"/>
<text text-anchor="middle" x="388" y="-14.3" font-family="Times,serif" font-size="14.00">7</text>
</g>
<!-- p6&#45;&gt;7 -->
<g id="edge10" class="edge">
<title>p6&#45;&gt;7</title>
<path fill="none" stroke="black" d="M388,-57.89C388,-54.2 388,-50.21 388,-46.24"/>
<polygon fill="black" stroke="black" points="391.5,-46 388,-36 384.5,-46 391.5,-46"/>
</g>
<!-- 8 -->
<g id="node14" class="node">
<title>8</title>
<ellipse fill="#ffb90f" stroke="black" cx="460" cy="-18" rx="27" ry="18"/>
<text text-anchor="middle" x="460" y="-14.3" font-family="Times,serif" font-size="14.00">8</text>
</g>
<!-- p6&#45;&gt;8 -->
<g id="edge11" class="edge">
<title>p6&#45;&gt;8</title>
<path fill="none" stroke="black" d="M400.21,-65.5C409.71,-58.12 423.19,-47.63 434.95,-38.48"/>
<polygon fill="black" stroke="black" points="437.38,-41.02 443.13,-32.12 433.09,-35.5 437.38,-41.02"/>
</g>
<!-- 9 -->
<g id="node15" class="node">
<title>9</title>
<ellipse fill="#ffb90f" stroke="black" cx="532" cy="-18" rx="27" ry="18"/>
<text text-anchor="middle" x="532" y="-14.3" font-family="Times,serif" font-size="14.00">9</text>
</g>
<!-- p7&#45;&gt;9 -->
<g id="edge13" class="edge">
<title>p7&#45;&gt;9</title>
<path fill="none" stroke="black" d="M532,-57.89C532,-54.2 532,-50.21 532,-46.24"/>
<polygon fill="black" stroke="black" points="535.5,-46 532,-36 528.5,-46 535.5,-46"/>
</g>
<!-- 10 -->
<g id="node17" class="node">
<title>10</title>
<ellipse fill="#ffb90f" stroke="black" cx="604" cy="-18" rx="27" ry="18"/>
<text text-anchor="middle" x="604" y="-14.3" font-family="Times,serif" font-size="14.00">10</text>
</g>
<!-- p7&#45;&gt;10 -->
<g id="edge14" class="edge">
<title>p7&#45;&gt;10</title>
<path fill="none" stroke="black" d="M544.21,-65.5C553.71,-58.12 567.19,-47.63 578.95,-38.48"/>
<polygon fill="black" stroke="black" points="581.38,-41.02 587.13,-32.12 577.09,-35.5 581.38,-41.02"/>
</g>
<!-- 11 -->
<g id="node18" class="node">
<title>11</title>
<ellipse fill="#ffb90f" stroke="black" cx="676" cy="-18" rx="27" ry="18"/>
<text text-anchor="middle" x="676" y="-14.3" font-family="Times,serif" font-size="14.00">11</text>
</g>
<!-- p7&#45;&gt;11 -->
<g id="edge15" class="edge">
<title>p7&#45;&gt;11</title>
<path fill="none" stroke="black" d="M548.52,-68.58C571.68,-59.57 614.29,-43 643.83,-31.51"/>
<polygon fill="black" stroke="black" points="645.25,-34.71 653.3,-27.83 642.72,-28.19 645.25,-34.71"/>
</g>
<!-- 12 -->
<g id="node19" class="node">
<title>12</title>
<ellipse fill="#ffb90f" stroke="black" cx="605" cy="-76" rx="27" ry="18"/>
<text text-anchor="middle" x="605" y="-72.3" font-family="Times,serif" font-size="14.00">12</text>
</g>
<!-- p8&#45;&gt;12 -->
<g id="edge18" class="edge">
<title>p8&#45;&gt;12</title>
<path fill="none" stroke="black" d="M605,-115.89C605,-112.2 605,-108.21 605,-104.24"/>
<polygon fill="black" stroke="black" points="608.5,-104 605,-94 601.5,-104 608.5,-104"/>
</g>
<!-- 13 -->
<g id="node21" class="node">
<title>13</title>
<ellipse fill="#ffb90f" stroke="black" cx="677" cy="-76" rx="27" ry="18"/>
<text text-anchor="middle" x="677" y="-72.3" font-family="Times,serif" font-size="14.00">13</text>
</g>
<!-- p8&#45;&gt;13 -->
<g id="edge19" class="edge">
<title>p8&#45;&gt;13</title>
<path fill="none" stroke="black" d="M617.21,-123.5C626.71,-116.12 640.19,-105.63 651.95,-96.48"/>
<polygon fill="black" stroke="black" points="654.38,-99.02 660.13,-90.12 650.09,-93.5 654.38,-99.02"/>
</g>
<!-- p1 -->
<g id="node22" class="node">
<title>p1</title>
<polygon fill="cyan" stroke="black" points="388,-268 360.35,-250 388,-232 415.65,-250 388,-268"/>
<text text-anchor="middle" x="388" y="-246.3" font-family="Times,serif" font-size="14.00" fill="darkturquoise">p1</text>
</g>
<!-- p1&#45;&gt;p2 -->
<g id="edge21" class="edge">
<title>p1&#45;&gt;p2</title>
<path fill="none" stroke="black" d="M388,-231.89C388,-228.2 388,-224.21 388,-220.24"/>
<polygon fill="black" stroke="black" points="391.5,-220 388,-210 384.5,-220 391.5,-220"/>
</g>
</g>
</svg>
