<?xml version="1.0" encoding="UTF-8" standalone="no"?>
<!DOCTYPE svg PUBLIC "-//W3C//DTD SVG 1.1//EN"
 "http://www.w3.org/Graphics/SVG/1.1/DTD/svg11.dtd">
<!-- Generated by graphviz version 2.50.0 (20211204.2007)
 -->
<!-- Pages: 1 -->
<svg width="711pt" height="334pt"
 viewBox="0.00 0.00 711.00 334.00" xmlns="http://www.w3.org/2000/svg" xmlns:xlink="http://www.w3.org/1999/xlink">
<g id="graph0" class="graph" transform="scale(1 1) rotate(0) translate(4 330)">
<polygon fill="white" stroke="transparent" points="-4,4 -4,-330 707,-330 707,4 -4,4"/>
<!-- 0 -->
<g id="node1" class="node">
<title>0</title>
<ellipse fill="#ffb90f" stroke="black" cx="205" cy="-134" rx="27" ry="18"/>
<text text-anchor="middle" x="205" y="-130.3" font-family="Times,serif" font-size="14.00">0</text>
</g>
<!-- p3 -->
<g id="node2" class="node">
<title>p3</title>
<polygon fill="cyan" stroke="black" points="313,-210 285.35,-192 313,-174 340.65,-192 313,-210"/>
<text text-anchor="middle" x="313" y="-188.3" font-family="Times,serif" font-size="14.00" fill="darkturquoise">p3</text>
</g>
<!-- p3&#45;&gt;0 -->
<g id="edge1" class="edge">
<title>p3&#45;&gt;0</title>
<path fill="none" stroke="black" d="M298.43,-183.45C282.16,-175.01 255.37,-161.12 234.64,-150.37"/>
<polygon fill="black" stroke="black" points="236.09,-147.18 225.6,-145.68 232.87,-153.39 236.09,-147.18"/>
</g>
<!-- 1 -->
<g id="node3" class="node">
<title>1</title>
<ellipse fill="#ffb90f" stroke="black" cx="277" cy="-134" rx="27" ry="18"/>
<text text-anchor="middle" x="277" y="-130.3" font-family="Times,serif" font-size="14.00">1</text>
</g>
<!-- p3&#45;&gt;1 -->
<g id="edge2" class="edge">
<title>p3&#45;&gt;1</title>
<path fill="none" stroke="black" d="M305.19,-178.85C301.55,-173.19 297.08,-166.24 292.78,-159.55"/>
<polygon fill="black" stroke="black" points="295.48,-157.27 287.12,-150.75 289.59,-161.05 295.48,-157.27"/>
</g>
<!-- 2 -->
<g id="node4" class="node">
<title>2</title>
<ellipse fill="#ffb90f" stroke="black" cx="349" cy="-134" rx="27" ry="18"/>
<text text-anchor="middle" x="349" y="-130.3" font-family="Times,serif" font-size="14.00">2</text>
</g>
<!-- p3&#45;&gt;2 -->
<g id="edge3" class="edge">
<title>p3&#45;&gt;2</title>
<path fill="none" stroke="black" d="M320.81,-178.85C324.45,-173.19 328.92,-166.24 333.22,-159.55"/>
<polygon fill="black" stroke="black" points="336.41,-161.05 338.88,-150.75 330.52,-157.27 336.41,-161.05"/>
</g>
<!-- p2 -->
<g id="node5" class="node">
<title>p2</title>
<polygon fill="cyan" stroke="black" points="422,-268 394.35,-250 422,-232 449.65,-250 422,-268"/>
<text text-anchor="middle" x="422" y="-246.3" font-family="Times,serif" font-size="14.00" fill="darkturquoise">p2</text>
</g>
<!-- p2&#45;&gt;p3 -->
<g id="edge4" class="edge">
<title>p2&#45;&gt;p3</title>
<path fill="none" stroke="black" d="M407.3,-241.45C389.26,-232.18 358.43,-216.34 336.95,-205.3"/>
<polygon fill="black" stroke="black" points="338.31,-202.07 327.82,-200.61 335.11,-208.29 338.31,-202.07"/>
</g>
<!-- p4 -->
<g id="node19" class="node">
<title>p4</title>
<polygon fill="cyan" stroke="black" points="422,-210 394.35,-192 422,-174 449.65,-192 422,-210"/>
<text text-anchor="middle" x="422" y="-188.3" font-family="Times,serif" font-size="14.00" fill="darkturquoise">p4</text>
</g>
<!-- p2&#45;&gt;p4 -->
<g id="edge22" class="edge">
<title>p2&#45;&gt;p4</title>
<path fill="none" stroke="black" d="M422,-231.89C422,-228.2 422,-224.21 422,-220.24"/>
<polygon fill="black" stroke="black" points="425.5,-220 422,-210 418.5,-220 425.5,-220"/>
</g>
<!-- 15 -->
<g id="node24" class="node">
<title>15</title>
<ellipse fill="#ffb90f" stroke="black" cx="495" cy="-192" rx="27" ry="18"/>
<text text-anchor="middle" x="495" y="-188.3" font-family="Times,serif" font-size="14.00">15</text>
</g>
<!-- p2&#45;&gt;15 -->
<g id="edge23" class="edge">
<title>p2&#45;&gt;15</title>
<path fill="none" stroke="black" d="M434.05,-239.75C443.79,-232.28 457.83,-221.51 469.98,-212.19"/>
<polygon fill="black" stroke="black" points="472.21,-214.9 478.01,-206.03 467.95,-209.34 472.21,-214.9"/>
</g>
<!-- 3 -->
<g id="node6" class="node">
<title>3</title>
<ellipse fill="#ffb90f" stroke="black" cx="27" cy="-18" rx="27" ry="18"/>
<text text-anchor="middle" x="27" y="-14.3" font-family="Times,serif" font-size="14.00">3</text>
</g>
<!-- p6 -->
<g id="node7" class="node">
<title>p6</title>
<polygon fill="cyan" stroke="black" points="135,-94 107.35,-76 135,-58 162.65,-76 135,-94"/>
<text text-anchor="middle" x="135" y="-72.3" font-family="Times,serif" font-size="14.00" fill="darkturquoise">p6</text>
</g>
<!-- p6&#45;&gt;3 -->
<g id="edge5" class="edge">
<title>p6&#45;&gt;3</title>
<path fill="none" stroke="black" d="M120.43,-67.45C104.16,-59.01 77.37,-45.12 56.64,-34.37"/>
<polygon fill="black" stroke="black" points="58.09,-31.18 47.6,-29.68 54.87,-37.39 58.09,-31.18"/>
</g>
<!-- 4 -->
<g id="node8" class="node">
<title>4</title>
<ellipse fill="#ffb90f" stroke="black" cx="99" cy="-18" rx="27" ry="18"/>
<text text-anchor="middle" x="99" y="-14.3" font-family="Times,serif" font-size="14.00">4</text>
</g>
<!-- p6&#45;&gt;4 -->
<g id="edge6" class="edge">
<title>p6&#45;&gt;4</title>
<path fill="none" stroke="black" d="M127.19,-62.85C123.55,-57.19 119.08,-50.24 114.78,-43.55"/>
<polygon fill="black" stroke="black" points="117.48,-41.27 109.12,-34.75 111.59,-45.05 117.48,-41.27"/>
</g>
<!-- 5 -->
<g id="node9" class="node">
<title>5</title>
<ellipse fill="#ffb90f" stroke="black" cx="171" cy="-18" rx="27" ry="18"/>
<text text-anchor="middle" x="171" y="-14.3" font-family="Times,serif" font-size="14.00">5</text>
</g>
<!-- p6&#45;&gt;5 -->
<g id="edge7" class="edge">
<title>p6&#45;&gt;5</title>
<path fill="none" stroke="black" d="M142.81,-62.85C146.45,-57.19 150.92,-50.24 155.22,-43.55"/>
<polygon fill="black" stroke="black" points="158.41,-45.05 160.88,-34.75 152.52,-41.27 158.41,-45.05"/>
</g>
<!-- p5 -->
<g id="node10" class="node">
<title>p5</title>
<polygon fill="cyan" stroke="black" points="422,-152 394.35,-134 422,-116 449.65,-134 422,-152"/>
<text text-anchor="middle" x="422" y="-130.3" font-family="Times,serif" font-size="14.00" fill="darkturquoise">p5</text>
</g>
<!-- p5&#45;&gt;p6 -->
<g id="edge8" class="edge">
<title>p5&#45;&gt;p6</title>
<path fill="none" stroke="black" d="M401.82,-129.06C352.21,-119.38 224.08,-94.38 165.29,-82.91"/>
<polygon fill="black" stroke="black" points="165.64,-79.41 155.16,-80.93 164.3,-86.28 165.64,-79.41"/>
</g>
<!-- p7 -->
<g id="node12" class="node">
<title>p7</title>
<polygon fill="cyan" stroke="black" points="350,-94 322.35,-76 350,-58 377.65,-76 350,-94"/>
<text text-anchor="middle" x="350" y="-72.3" font-family="Times,serif" font-size="14.00" fill="darkturquoise">p7</text>
</g>
<!-- p5&#45;&gt;p7 -->
<g id="edge12" class="edge">
<title>p5&#45;&gt;p7</title>
<path fill="none" stroke="black" d="M409.79,-123.5C398.96,-115.08 382.95,-102.63 370.22,-92.73"/>
<polygon fill="black" stroke="black" points="372.08,-89.74 362.03,-86.36 367.78,-95.26 372.08,-89.74"/>
</g>
<!-- p8 -->
<g id="node16" class="node">
<title>p8</title>
<polygon fill="cyan" stroke="black" points="459,-94 431.35,-76 459,-58 486.65,-76 459,-94"/>
<text text-anchor="middle" x="459" y="-72.3" font-family="Times,serif" font-size="14.00" fill="darkturquoise">p8</text>
</g>
<!-- p5&#45;&gt;p8 -->
<g id="edge16" class="edge">
<title>p5&#45;&gt;p8</title>
<path fill="none" stroke="black" d="M430.03,-120.85C434.54,-114.02 440.28,-105.33 445.47,-97.48"/>
<polygon fill="black" stroke="black" points="448.39,-99.4 450.99,-89.13 442.55,-95.54 448.39,-99.4"/>
</g>
<!-- 6 -->
<g id="node11" class="node">
<title>6</title>
<ellipse fill="#ffb90f" stroke="black" cx="243" cy="-18" rx="27" ry="18"/>
<text text-anchor="middle" x="243" y="-14.3" font-family="Times,serif" font-size="14.00">6</text>
</g>
<!-- p7&#45;&gt;6 -->
<g id="edge9" class="edge">
<title>p7&#45;&gt;6</title>
<path fill="none" stroke="black" d="M335.12,-67.21C318.99,-58.77 292.82,-45.07 272.49,-34.43"/>
<polygon fill="black" stroke="black" points="274.1,-31.33 263.61,-29.79 270.85,-37.53 274.1,-31.33"/>
</g>
<!-- 7 -->
<g id="node13" class="node">
<title>7</title>
<ellipse fill="#ffb90f" stroke="black" cx="315" cy="-18" rx="27" ry="18"/>
<text text-anchor="middle" x="315" y="-14.3" font-family="Times,serif" font-size="14.00">7</text>
</g>
<!-- p7&#45;&gt;7 -->
<g id="edge10" class="edge">
<title>p7&#45;&gt;7</title>
<path fill="none" stroke="black" d="M342.41,-62.85C338.92,-57.28 334.66,-50.45 330.54,-43.87"/>
<polygon fill="black" stroke="black" points="333.37,-41.79 325.1,-35.17 327.44,-45.5 333.37,-41.79"/>
</g>
<!-- 8 -->
<g id="node14" class="node">
<title>8</title>
<ellipse fill="#ffb90f" stroke="black" cx="387" cy="-18" rx="27" ry="18"/>
<text text-anchor="middle" x="387" y="-14.3" font-family="Times,serif" font-size="14.00">8</text>
</g>
<!-- p7&#45;&gt;8 -->
<g id="edge11" class="edge">
<title>p7&#45;&gt;8</title>
<path fill="none" stroke="black" d="M358.03,-62.85C361.85,-57.06 366.57,-49.92 371.08,-43.1"/>
<polygon fill="black" stroke="black" points="374,-45.02 376.59,-34.75 368.16,-41.16 374,-45.02"/>
</g>
<!-- 9 -->
<g id="node15" class="node">
<title>9</title>
<ellipse fill="#ffb90f" stroke="black" cx="459" cy="-18" rx="27" ry="18"/>
<text text-anchor="middle" x="459" y="-14.3" font-family="Times,serif" font-size="14.00">9</text>
</g>
<!-- p8&#45;&gt;9 -->
<g id="edge13" class="edge">
<title>p8&#45;&gt;9</title>
<path fill="none" stroke="black" d="M459,-57.89C459,-54.2 459,-50.21 459,-46.24"/>
<polygon fill="black" stroke="black" points="462.5,-46 459,-36 455.5,-46 462.5,-46"/>
</g>
<!-- 10 -->
<g id="node17" class="node">
<title>10</title>
<ellipse fill="#ffb90f" stroke="black" cx="531" cy="-18" rx="27" ry="18"/>
<text text-anchor="middle" x="531" y="-14.3" font-family="Times,serif" font-size="14.00">10</text>
</g>
<!-- p8&#45;&gt;10 -->
<g id="edge14" class="edge">
<title>p8&#45;&gt;10</title>
<path fill="none" stroke="black" d="M471.21,-65.5C480.71,-58.12 494.19,-47.63 505.95,-38.48"/>
<polygon fill="black" stroke="black" points="508.38,-41.02 514.13,-32.12 504.09,-35.5 508.38,-41.02"/>
</g>
<!-- 11 -->
<g id="node18" class="node">
<title>11</title>
<ellipse fill="#ffb90f" stroke="black" cx="603" cy="-18" rx="27" ry="18"/>
<text text-anchor="middle" x="603" y="-14.3" font-family="Times,serif" font-size="14.00">11</text>
</g>
<!-- p8&#45;&gt;11 -->
<g id="edge15" class="edge">
<title>p8&#45;&gt;11</title>
<path fill="none" stroke="black" d="M475.52,-68.58C498.68,-59.57 541.29,-43 570.83,-31.51"/>
<polygon fill="black" stroke="black" points="572.25,-34.71 580.3,-27.83 569.72,-28.19 572.25,-34.71"/>
</g>
<!-- p4&#45;&gt;p5 -->
<g id="edge17" class="edge">
<title>p4&#45;&gt;p5</title>
<path fill="none" stroke="black" d="M422,-173.89C422,-170.2 422,-166.21 422,-162.24"/>
<polygon fill="black" stroke="black" points="425.5,-162 422,-152 418.5,-162 425.5,-162"/>
</g>
<!-- p9 -->
<g id="node21" class="node">
<title>p9</title>
<polygon fill="cyan" stroke="black" points="568,-152 540.35,-134 568,-116 595.65,-134 568,-152"/>
<text text-anchor="middle" x="568" y="-130.3" font-family="Times,serif" font-size="14.00" fill="darkturquoise">p9</text>
</g>
<!-- p4&#45;&gt;p9 -->
<g id="edge21" class="edge">
<title>p4&#45;&gt;p9</title>
<path fill="none" stroke="black" d="M438.46,-184.68C463.66,-175.02 512,-156.48 541.97,-144.98"/>
<polygon fill="black" stroke="black" points="543.29,-148.23 551.37,-141.38 540.78,-141.69 543.29,-148.23"/>
</g>
<!-- 12 -->
<g id="node20" class="node">
<title>12</title>
<ellipse fill="#ffb90f" stroke="black" cx="532" cy="-76" rx="27" ry="18"/>
<text text-anchor="middle" x="532" y="-72.3" font-family="Times,serif" font-size="14.00">12</text>
</g>
<!-- p9&#45;&gt;12 -->
<g id="edge18" class="edge">
<title>p9&#45;&gt;12</title>
<path fill="none" stroke="black" d="M560.19,-120.85C556.55,-115.19 552.08,-108.24 547.78,-101.55"/>
<polygon fill="black" stroke="black" points="550.48,-99.27 542.12,-92.75 544.59,-103.05 550.48,-99.27"/>
</g>
<!-- 13 -->
<g id="node22" class="node">
<title>13</title>
<ellipse fill="#ffb90f" stroke="black" cx="604" cy="-76" rx="27" ry="18"/>
<text text-anchor="middle" x="604" y="-72.3" font-family="Times,serif" font-size="14.00">13</text>
</g>
<!-- p9&#45;&gt;13 -->
<g id="edge19" class="edge">
<title>p9&#45;&gt;13</title>
<path fill="none" stroke="black" d="M575.81,-120.85C579.45,-115.19 583.92,-108.24 588.22,-101.55"/>
<polygon fill="black" stroke="black" points="591.41,-103.05 593.88,-92.75 585.52,-99.27 591.41,-103.05"/>
</g>
<!-- 14 -->
<g id="node23" class="node">
<title>14</title>
<ellipse fill="#ffb90f" stroke="black" cx="676" cy="-76" rx="27" ry="18"/>
<text text-anchor="middle" x="676" y="-72.3" font-family="Times,serif" font-size="14.00">14</text>
</g>
<!-- p9&#45;&gt;14 -->
<g id="edge20" class="edge">
<title>p9&#45;&gt;14</title>
<path fill="none" stroke="black" d="M582.57,-125.45C598.84,-117.01 625.63,-103.12 646.36,-92.37"/>
<polygon fill="black" stroke="black" points="648.13,-95.39 655.4,-87.68 644.91,-89.18 648.13,-95.39"/>
</g>
<!-- p1 -->
<g id="node25" class="node">
<title>p1</title>
<polygon fill="cyan" stroke="black" points="422,-326 394.35,-308 422,-290 449.65,-308 422,-326"/>
<text text-anchor="middle" x="422" y="-304.3" font-family="Times,serif" font-size="14.00" fill="darkturquoise">p1</text>
</g>
<!-- p1&#45;&gt;p2 -->
<g id="edge24" class="edge">
<title>p1&#45;&gt;p2</title>
<path fill="none" stroke="black" d="M422,-289.89C422,-286.2 422,-282.21 422,-278.24"/>
<polygon fill="black" stroke="black" points="425.5,-278 422,-268 418.5,-278 425.5,-278"/>
</g>
</g>
</svg>
