<?xml version="1.0" encoding="UTF-8" standalone="no"?>
<!DOCTYPE svg PUBLIC "-//W3C//DTD SVG 1.1//EN"
 "http://www.w3.org/Graphics/SVG/1.1/DTD/svg11.dtd">
<!-- Generated by graphviz version 2.50.0 (20211204.2007)
 -->
<!-- Pages: 1 -->
<svg width="712pt" height="334pt"
 viewBox="0.00 0.00 712.00 334.00" xmlns="http://www.w3.org/2000/svg" xmlns:xlink="http://www.w3.org/1999/xlink">
<g id="graph0" class="graph" transform="scale(1 1) rotate(0) translate(4 330)">
<polygon fill="white" stroke="transparent" points="-4,4 -4,-330 708,-330 708,4 -4,4"/>
<!-- 0 -->
<g id="node1" class="node">
<title>0</title>
<ellipse fill="#ffb90f" stroke="black" cx="242" cy="-134" rx="27" ry="18"/>
<text text-anchor="middle" x="242" y="-130.3" font-family="Times,serif" font-size="14.00">0</text>
</g>
<!-- p3 -->
<g id="node2" class="node">
<title>p3</title>
<polygon fill="cyan" stroke="black" points="350,-210 322.35,-192 350,-174 377.65,-192 350,-210"/>
<text text-anchor="middle" x="350" y="-188.3" font-family="Times,serif" font-size="14.00" fill="darkturquoise">p3</text>
</g>
<!-- p3&#45;&gt;0 -->
<g id="edge1" class="edge">
<title>p3&#45;&gt;0</title>
<path fill="none" stroke="black" d="M335.43,-183.45C319.16,-175.01 292.37,-161.12 271.64,-150.37"/>
<polygon fill="black" stroke="black" points="273.09,-147.18 262.6,-145.68 269.87,-153.39 273.09,-147.18"/>
</g>
<!-- 1 -->
<g id="node3" class="node">
<title>1</title>
<ellipse fill="#ffb90f" stroke="black" cx="314" cy="-134" rx="27" ry="18"/>
<text text-anchor="middle" x="314" y="-130.3" font-family="Times,serif" font-size="14.00">1</text>
</g>
<!-- p3&#45;&gt;1 -->
<g id="edge2" class="edge">
<title>p3&#45;&gt;1</title>
<path fill="none" stroke="black" d="M342.19,-178.85C338.55,-173.19 334.08,-166.24 329.78,-159.55"/>
<polygon fill="black" stroke="black" points="332.48,-157.27 324.12,-150.75 326.59,-161.05 332.48,-157.27"/>
</g>
<!-- 2 -->
<g id="node4" class="node">
<title>2</title>
<ellipse fill="#ffb90f" stroke="black" cx="386" cy="-134" rx="27" ry="18"/>
<text text-anchor="middle" x="386" y="-130.3" font-family="Times,serif" font-size="14.00">2</text>
</g>
<!-- p3&#45;&gt;2 -->
<g id="edge3" class="edge">
<title>p3&#45;&gt;2</title>
<path fill="none" stroke="black" d="M357.81,-178.85C361.45,-173.19 365.92,-166.24 370.22,-159.55"/>
<polygon fill="black" stroke="black" points="373.41,-161.05 375.88,-150.75 367.52,-157.27 373.41,-161.05"/>
</g>
<!-- p2 -->
<g id="node5" class="node">
<title>p2</title>
<polygon fill="cyan" stroke="black" points="492,-268 464.35,-250 492,-232 519.65,-250 492,-268"/>
<text text-anchor="middle" x="492" y="-246.3" font-family="Times,serif" font-size="14.00" fill="darkturquoise">p2</text>
</g>
<!-- p2&#45;&gt;p3 -->
<g id="edge4" class="edge">
<title>p2&#45;&gt;p3</title>
<path fill="none" stroke="black" d="M475.71,-242.58C451.34,-232.96 405.14,-214.75 376.05,-203.27"/>
<polygon fill="black" stroke="black" points="377.12,-199.93 366.54,-199.52 374.56,-206.45 377.12,-199.93"/>
</g>
<!-- p4 -->
<g id="node19" class="node">
<title>p4</title>
<polygon fill="cyan" stroke="black" points="492,-210 464.35,-192 492,-174 519.65,-192 492,-210"/>
<text text-anchor="middle" x="492" y="-188.3" font-family="Times,serif" font-size="14.00" fill="darkturquoise">p4</text>
</g>
<!-- p2&#45;&gt;p4 -->
<g id="edge22" class="edge">
<title>p2&#45;&gt;p4</title>
<path fill="none" stroke="black" d="M492,-231.89C492,-228.2 492,-224.21 492,-220.24"/>
<polygon fill="black" stroke="black" points="495.5,-220 492,-210 488.5,-220 495.5,-220"/>
</g>
<!-- p10 -->
<g id="node25" class="node">
<title>p10</title>
<polygon fill="cyan" stroke="black" points="605,-210 570.98,-192 605,-174 639.02,-192 605,-210"/>
<text text-anchor="middle" x="605" y="-188.3" font-family="Times,serif" font-size="14.00" fill="darkturquoise">p10</text>
</g>
<!-- p2&#45;&gt;p10 -->
<g id="edge25" class="edge">
<title>p2&#45;&gt;p10</title>
<path fill="none" stroke="black" d="M507.24,-241.45C525.61,-232.35 556.76,-216.9 578.97,-205.9"/>
<polygon fill="black" stroke="black" points="580.76,-208.92 588.16,-201.34 577.65,-202.65 580.76,-208.92"/>
</g>
<!-- 3 -->
<g id="node6" class="node">
<title>3</title>
<ellipse fill="#ffb90f" stroke="black" cx="27" cy="-18" rx="27" ry="18"/>
<text text-anchor="middle" x="27" y="-14.3" font-family="Times,serif" font-size="14.00">3</text>
</g>
<!-- p6 -->
<g id="node7" class="node">
<title>p6</title>
<polygon fill="cyan" stroke="black" points="135,-94 107.35,-76 135,-58 162.65,-76 135,-94"/>
<text text-anchor="middle" x="135" y="-72.3" font-family="Times,serif" font-size="14.00" fill="darkturquoise">p6</text>
</g>
<!-- p6&#45;&gt;3 -->
<g id="edge5" class="edge">
<title>p6&#45;&gt;3</title>
<path fill="none" stroke="black" d="M120.43,-67.45C104.16,-59.01 77.37,-45.12 56.64,-34.37"/>
<polygon fill="black" stroke="black" points="58.09,-31.18 47.6,-29.68 54.87,-37.39 58.09,-31.18"/>
</g>
<!-- 4 -->
<g id="node8" class="node">
<title>4</title>
<ellipse fill="#ffb90f" stroke="black" cx="99" cy="-18" rx="27" ry="18"/>
<text text-anchor="middle" x="99" y="-14.3" font-family="Times,serif" font-size="14.00">4</text>
</g>
<!-- p6&#45;&gt;4 -->
<g id="edge6" class="edge">
<title>p6&#45;&gt;4</title>
<path fill="none" stroke="black" d="M127.19,-62.85C123.55,-57.19 119.08,-50.24 114.78,-43.55"/>
<polygon fill="black" stroke="black" points="117.48,-41.27 109.12,-34.75 111.59,-45.05 117.48,-41.27"/>
</g>
<!-- 5 -->
<g id="node9" class="node">
<title>5</title>
<ellipse fill="#ffb90f" stroke="black" cx="171" cy="-18" rx="27" ry="18"/>
<text text-anchor="middle" x="171" y="-14.3" font-family="Times,serif" font-size="14.00">5</text>
</g>
<!-- p6&#45;&gt;5 -->
<g id="edge7" class="edge">
<title>p6&#45;&gt;5</title>
<path fill="none" stroke="black" d="M142.81,-62.85C146.45,-57.19 150.92,-50.24 155.22,-43.55"/>
<polygon fill="black" stroke="black" points="158.41,-45.05 160.88,-34.75 152.52,-41.27 158.41,-45.05"/>
</g>
<!-- p5 -->
<g id="node10" class="node">
<title>p5</title>
<polygon fill="cyan" stroke="black" points="459,-152 431.35,-134 459,-116 486.65,-134 459,-152"/>
<text text-anchor="middle" x="459" y="-130.3" font-family="Times,serif" font-size="14.00" fill="darkturquoise">p5</text>
</g>
<!-- p5&#45;&gt;p6 -->
<g id="edge8" class="edge">
<title>p5&#45;&gt;p6</title>
<path fill="none" stroke="black" d="M438.24,-129.41C382.94,-119.85 231.81,-93.73 166.15,-82.38"/>
<polygon fill="black" stroke="black" points="166.46,-78.89 156.01,-80.63 165.26,-85.78 166.46,-78.89"/>
</g>
<!-- p7 -->
<g id="node12" class="node">
<title>p7</title>
<polygon fill="cyan" stroke="black" points="350,-94 322.35,-76 350,-58 377.65,-76 350,-94"/>
<text text-anchor="middle" x="350" y="-72.3" font-family="Times,serif" font-size="14.00" fill="darkturquoise">p7</text>
</g>
<!-- p5&#45;&gt;p7 -->
<g id="edge12" class="edge">
<title>p5&#45;&gt;p7</title>
<path fill="none" stroke="black" d="M444.3,-125.45C426.26,-116.18 395.43,-100.34 373.95,-89.3"/>
<polygon fill="black" stroke="black" points="375.31,-86.07 364.82,-84.61 372.11,-92.29 375.31,-86.07"/>
</g>
<!-- p8 -->
<g id="node16" class="node">
<title>p8</title>
<polygon fill="cyan" stroke="black" points="459,-94 431.35,-76 459,-58 486.65,-76 459,-94"/>
<text text-anchor="middle" x="459" y="-72.3" font-family="Times,serif" font-size="14.00" fill="darkturquoise">p8</text>
</g>
<!-- p5&#45;&gt;p8 -->
<g id="edge16" class="edge">
<title>p5&#45;&gt;p8</title>
<path fill="none" stroke="black" d="M459,-115.89C459,-112.2 459,-108.21 459,-104.24"/>
<polygon fill="black" stroke="black" points="462.5,-104 459,-94 455.5,-104 462.5,-104"/>
</g>
<!-- 6 -->
<g id="node11" class="node">
<title>6</title>
<ellipse fill="#ffb90f" stroke="black" cx="243" cy="-18" rx="27" ry="18"/>
<text text-anchor="middle" x="243" y="-14.3" font-family="Times,serif" font-size="14.00">6</text>
</g>
<!-- p7&#45;&gt;6 -->
<g id="edge9" class="edge">
<title>p7&#45;&gt;6</title>
<path fill="none" stroke="black" d="M335.12,-67.21C318.99,-58.77 292.82,-45.07 272.49,-34.43"/>
<polygon fill="black" stroke="black" points="274.1,-31.33 263.61,-29.79 270.85,-37.53 274.1,-31.33"/>
</g>
<!-- 7 -->
<g id="node13" class="node">
<title>7</title>
<ellipse fill="#ffb90f" stroke="black" cx="315" cy="-18" rx="27" ry="18"/>
<text text-anchor="middle" x="315" y="-14.3" font-family="Times,serif" font-size="14.00">7</text>
</g>
<!-- p7&#45;&gt;7 -->
<g id="edge10" class="edge">
<title>p7&#45;&gt;7</title>
<path fill="none" stroke="black" d="M342.41,-62.85C338.92,-57.28 334.66,-50.45 330.54,-43.87"/>
<polygon fill="black" stroke="black" points="333.37,-41.79 325.1,-35.17 327.44,-45.5 333.37,-41.79"/>
</g>
<!-- 8 -->
<g id="node14" class="node">
<title>8</title>
<ellipse fill="#ffb90f" stroke="black" cx="387" cy="-18" rx="27" ry="18"/>
<text text-anchor="middle" x="387" y="-14.3" font-family="Times,serif" font-size="14.00">8</text>
</g>
<!-- p7&#45;&gt;8 -->
<g id="edge11" class="edge">
<title>p7&#45;&gt;8</title>
<path fill="none" stroke="black" d="M358.03,-62.85C361.85,-57.06 366.57,-49.92 371.08,-43.1"/>
<polygon fill="black" stroke="black" points="374,-45.02 376.59,-34.75 368.16,-41.16 374,-45.02"/>
</g>
<!-- 9 -->
<g id="node15" class="node">
<title>9</title>
<ellipse fill="#ffb90f" stroke="black" cx="459" cy="-18" rx="27" ry="18"/>
<text text-anchor="middle" x="459" y="-14.3" font-family="Times,serif" font-size="14.00">9</text>
</g>
<!-- p8&#45;&gt;9 -->
<g id="edge13" class="edge">
<title>p8&#45;&gt;9</title>
<path fill="none" stroke="black" d="M459,-57.89C459,-54.2 459,-50.21 459,-46.24"/>
<polygon fill="black" stroke="black" points="462.5,-46 459,-36 455.5,-46 462.5,-46"/>
</g>
<!-- 10 -->
<g id="node17" class="node">
<title>10</title>
<ellipse fill="#ffb90f" stroke="black" cx="531" cy="-18" rx="27" ry="18"/>
<text text-anchor="middle" x="531" y="-14.3" font-family="Times,serif" font-size="14.00">10</text>
</g>
<!-- p8&#45;&gt;10 -->
<g id="edge14" class="edge">
<title>p8&#45;&gt;10</title>
<path fill="none" stroke="black" d="M471.21,-65.5C480.71,-58.12 494.19,-47.63 505.95,-38.48"/>
<polygon fill="black" stroke="black" points="508.38,-41.02 514.13,-32.12 504.09,-35.5 508.38,-41.02"/>
</g>
<!-- 11 -->
<g id="node18" class="node">
<title>11</title>
<ellipse fill="#ffb90f" stroke="black" cx="603" cy="-18" rx="27" ry="18"/>
<text text-anchor="middle" x="603" y="-14.3" font-family="Times,serif" font-size="14.00">11</text>
</g>
<!-- p8&#45;&gt;11 -->
<g id="edge15" class="edge">
<title>p8&#45;&gt;11</title>
<path fill="none" stroke="black" d="M475.52,-68.58C498.68,-59.57 541.29,-43 570.83,-31.51"/>
<polygon fill="black" stroke="black" points="572.25,-34.71 580.3,-27.83 569.72,-28.19 572.25,-34.71"/>
</g>
<!-- p4&#45;&gt;p5 -->
<g id="edge17" class="edge">
<title>p4&#45;&gt;p5</title>
<path fill="none" stroke="black" d="M484.68,-178.57C480.83,-172.05 476.01,-163.87 471.59,-156.36"/>
<polygon fill="black" stroke="black" points="474.4,-154.23 466.3,-147.39 468.36,-157.79 474.4,-154.23"/>
</g>
<!-- p9 -->
<g id="node21" class="node">
<title>p9</title>
<polygon fill="cyan" stroke="black" points="532,-152 504.35,-134 532,-116 559.65,-134 532,-152"/>
<text text-anchor="middle" x="532" y="-130.3" font-family="Times,serif" font-size="14.00" fill="darkturquoise">p9</text>
</g>
<!-- p4&#45;&gt;p9 -->
<g id="edge21" class="edge">
<title>p4&#45;&gt;p9</title>
<path fill="none" stroke="black" d="M500.48,-179.12C505.47,-172.14 511.9,-163.14 517.65,-155.08"/>
<polygon fill="black" stroke="black" points="520.56,-157.03 523.53,-146.86 514.87,-152.96 520.56,-157.03"/>
</g>
<!-- 12 -->
<g id="node20" class="node">
<title>12</title>
<ellipse fill="#ffb90f" stroke="black" cx="532" cy="-76" rx="27" ry="18"/>
<text text-anchor="middle" x="532" y="-72.3" font-family="Times,serif" font-size="14.00">12</text>
</g>
<!-- p9&#45;&gt;12 -->
<g id="edge18" class="edge">
<title>p9&#45;&gt;12</title>
<path fill="none" stroke="black" d="M532,-115.89C532,-112.2 532,-108.21 532,-104.24"/>
<polygon fill="black" stroke="black" points="535.5,-104 532,-94 528.5,-104 535.5,-104"/>
</g>
<!-- 13 -->
<g id="node22" class="node">
<title>13</title>
<ellipse fill="#ffb90f" stroke="black" cx="604" cy="-76" rx="27" ry="18"/>
<text text-anchor="middle" x="604" y="-72.3" font-family="Times,serif" font-size="14.00">13</text>
</g>
<!-- p9&#45;&gt;13 -->
<g id="edge19" class="edge">
<title>p9&#45;&gt;13</title>
<path fill="none" stroke="black" d="M544.21,-123.5C553.71,-116.12 567.19,-105.63 578.95,-96.48"/>
<polygon fill="black" stroke="black" points="581.38,-99.02 587.13,-90.12 577.09,-93.5 581.38,-99.02"/>
</g>
<!-- 14 -->
<g id="node23" class="node">
<title>14</title>
<ellipse fill="#ffb90f" stroke="black" cx="676" cy="-76" rx="27" ry="18"/>
<text text-anchor="middle" x="676" y="-72.3" font-family="Times,serif" font-size="14.00">14</text>
</g>
<!-- p9&#45;&gt;14 -->
<g id="edge20" class="edge">
<title>p9&#45;&gt;14</title>
<path fill="none" stroke="black" d="M548.52,-126.58C571.68,-117.57 614.29,-101 643.83,-89.51"/>
<polygon fill="black" stroke="black" points="645.25,-92.71 653.3,-85.83 642.72,-86.19 645.25,-92.71"/>
</g>
<!-- 15 -->
<g id="node24" class="node">
<title>15</title>
<ellipse fill="#ffb90f" stroke="black" cx="605" cy="-134" rx="27" ry="18"/>
<text text-anchor="middle" x="605" y="-130.3" font-family="Times,serif" font-size="14.00">15</text>
</g>
<!-- p10&#45;&gt;15 -->
<g id="edge23" class="edge">
<title>p10&#45;&gt;15</title>
<path fill="none" stroke="black" d="M605,-173.89C605,-170.2 605,-166.21 605,-162.24"/>
<polygon fill="black" stroke="black" points="608.5,-162 605,-152 601.5,-162 608.5,-162"/>
</g>
<!-- 16 -->
<g id="node26" class="node">
<title>16</title>
<ellipse fill="#ffb90f" stroke="black" cx="677" cy="-134" rx="27" ry="18"/>
<text text-anchor="middle" x="677" y="-130.3" font-family="Times,serif" font-size="14.00">16</text>
</g>
<!-- p10&#45;&gt;16 -->
<g id="edge24" class="edge">
<title>p10&#45;&gt;16</title>
<path fill="none" stroke="black" d="M618.21,-180.73C627.68,-173.36 640.73,-163.21 652.13,-154.34"/>
<polygon fill="black" stroke="black" points="654.32,-157.07 660.07,-148.17 650.02,-151.55 654.32,-157.07"/>
</g>
<!-- p1 -->
<g id="node27" class="node">
<title>p1</title>
<polygon fill="cyan" stroke="black" points="492,-326 464.35,-308 492,-290 519.65,-308 492,-326"/>
<text text-anchor="middle" x="492" y="-304.3" font-family="Times,serif" font-size="14.00" fill="darkturquoise">p1</text>
</g>
<!-- p1&#45;&gt;p2 -->
<g id="edge26" class="edge">
<title>p1&#45;&gt;p2</title>
<path fill="none" stroke="black" d="M492,-289.89C492,-286.2 492,-282.21 492,-278.24"/>
<polygon fill="black" stroke="black" points="495.5,-278 492,-268 488.5,-278 495.5,-278"/>
</g>
</g>
</svg>
